<?xml version="1.0" standalone="no"?>
<!DOCTYPE svg PUBLIC "-//W3C//DTD SVG 20010904//EN"
 "http://www.w3.org/TR/2001/REC-SVG-20010904/DTD/svg10.dtd">
<svg version="1.0" xmlns="http://www.w3.org/2000/svg"
 width="209.000000pt" height="209.000000pt" viewBox="0 0 209.000000 209.000000"
 preserveAspectRatio="xMidYMid meet">
<metadata>
Created by potrace 1.11, written by Peter Selinger 2001-2013
</metadata>
<g transform="translate(0.000000,209.000000) scale(0.100000,-0.100000)"
fill="#000000" stroke="none">
<path d="M990 2079 c0 -5 -5 -7 -10 -4 -6 3 -13 -1 -16 -9 -3 -9 -10 -13 -15
-10 -5 3 -13 -6 -18 -19 -5 -13 -16 -31 -25 -39 -8 -9 -17 -22 -18 -29 -2 -8
-9 -20 -16 -27 -7 -8 -10 -18 -7 -23 4 -5 -6 -9 -20 -9 -61 0 -96 -82 -56
-131 14 -18 17 -28 9 -43 -6 -11 -6 -16 0 -12 5 3 4 -11 -3 -32 -7 -20 -16
-53 -19 -72 -9 -56 -15 -82 -19 -87 -3 -2 -24 3 -48 12 -24 9 -50 17 -56 17
-7 1 -13 4 -13 8 0 4 -6 7 -12 7 -17 1 -55 10 -97 22 -18 6 -36 10 -40 9 -3 0
-8 1 -11 2 -11 4 -46 10 -75 13 -17 2 -35 6 -41 9 -5 4 -16 3 -24 -3 -20 -12
-33 -11 -25 1 3 5 0 8 -7 5 -7 -2 -30 -7 -51 -10 -21 -3 -51 -12 -67 -20 -31
-16 -54 -48 -43 -59 3 -3 1 -6 -6 -6 -7 0 -10 -7 -7 -17 3 -10 7 -30 10 -45 2
-14 11 -37 20 -50 9 -14 13 -28 9 -31 -3 -4 -1 -7 5 -7 7 0 12 -5 12 -11 0 -6
6 -17 12 -24 28 -31 39 -45 34 -45 -3 0 15 -21 40 -46 24 -26 44 -50 44 -55 0
-5 6 -8 13 -6 6 1 11 -4 10 -10 -2 -7 2 -13 7 -13 6 0 18 -8 28 -18 10 -9 41
-37 70 -61 l52 -45 -21 -23 c-12 -12 -25 -20 -30 -18 -4 3 -10 -4 -14 -15 -3
-11 -10 -20 -14 -20 -4 0 -34 -26 -66 -57 -33 -32 -63 -56 -67 -55 -5 1 -7 -2
-5 -7 1 -5 -11 -20 -26 -35 -15 -14 -24 -26 -20 -26 4 0 1 -6 -8 -13 -23 -18
-89 -130 -89 -150 0 -10 -3 -16 -7 -14 -5 3 -8 -6 -8 -19 0 -13 3 -24 6 -24 3
0 5 -10 3 -22 -7 -38 39 -75 101 -83 17 -2 32 -4 35 -5 16 -6 77 -4 91 2 9 4
27 -1 45 -13 40 -26 80 -24 109 6 14 13 25 29 25 35 0 6 5 8 10 5 6 -3 10 -1
10 4 0 6 3 10 8 10 24 -4 52 2 47 11 -3 5 0 7 9 4 8 -3 28 2 45 11 17 8 31 13
31 9 0 -4 6 -1 13 5 8 6 17 8 20 4 4 -3 7 0 7 7 0 18 23 -3 26 -24 1 -8 5 -34
8 -57 3 -23 11 -48 17 -55 9 -11 9 -14 0 -14 -9 0 -9 -5 -1 -20 6 -11 8 -20 4
-20 -3 0 -1 -7 6 -15 6 -8 9 -19 6 -24 -4 -5 -2 -12 3 -15 5 -4 12 -24 16 -46
4 -22 12 -40 18 -40 5 0 7 -3 4 -7 -4 -3 -2 -12 4 -20 6 -7 9 -13 5 -13 -3 0
6 -20 20 -45 13 -25 22 -45 19 -45 -3 0 6 -11 20 -25 14 -14 25 -30 25 -35 0
-6 7 -10 15 -10 8 0 15 -3 15 -8 0 -4 9 -13 21 -20 17 -11 20 -11 13 0 -6 10
-5 11 7 1 8 -6 22 -11 32 -9 24 3 96 58 97 74 0 6 5 12 10 12 6 0 9 3 9 7 -3
19 2 34 9 29 11 -7 85 193 78 211 -3 8 -1 11 4 8 6 -3 11 2 11 12 1 19 4 35 8
43 2 3 4 14 6 25 1 11 6 38 10 60 3 22 7 47 9 55 7 40 17 50 39 38 22 -12 42
-18 65 -20 6 -1 12 -5 12 -8 0 -7 50 -22 78 -24 8 -1 20 -15 27 -33 22 -53 78
-69 125 -36 27 19 50 25 50 15 0 -9 169 -6 198 3 12 4 22 12 22 17 0 6 6 8 13
5 19 -7 46 51 44 95 0 20 -5 34 -9 32 -4 -3 -8 9 -8 25 0 17 -4 31 -10 31 -5
0 -10 7 -10 15 0 8 -4 15 -10 15 -5 0 -10 6 -10 13 0 7 -9 23 -20 35 -11 12
-20 24 -20 27 0 4 -17 24 -38 44 -21 21 -48 51 -60 66 -12 15 -22 24 -22 20 0
-4 -17 10 -39 31 -21 22 -58 56 -81 78 -40 36 -42 39 -24 49 10 6 20 10 21 9
1 0 26 23 57 53 30 29 56 53 58 51 1 -1 13 8 25 21 12 13 20 23 17 23 -3 0 12
17 33 38 49 47 94 108 86 116 -4 3 -2 6 4 6 13 0 46 76 47 105 0 11 3 22 7 25
10 7 -33 84 -45 81 -5 -2 -12 2 -15 8 -4 5 -20 13 -36 16 -39 9 -137 13 -149
6 -6 -2 -24 -6 -40 -7 -17 -2 -38 -5 -46 -7 -8 -2 -43 -10 -77 -17 -35 -7 -63
-16 -63 -21 0 -4 -9 -6 -20 -4 -11 2 -20 -1 -20 -7 0 -6 -3 -9 -6 -6 -3 4 -22
0 -42 -9 -20 -8 -45 -17 -56 -19 -11 -2 -23 -8 -26 -14 -9 -15 -28 33 -35 85
-3 22 -12 67 -20 100 -9 33 -17 69 -19 80 -2 11 -5 21 -6 23 -1 1 -3 5 -5 10
-1 4 -5 15 -8 25 -4 9 -10 25 -14 35 -3 9 -5 20 -5 25 1 4 -3 7 -10 7 -6 0 -8
3 -5 6 15 15 -90 163 -111 156 -6 -2 -12 1 -12 7 0 6 -18 11 -40 11 -22 0 -40
-5 -40 -11z m112 -67 c15 -15 28 -35 28 -44 0 -10 5 -18 11 -18 6 0 9 -7 5
-15 -3 -8 -2 -15 3 -15 13 0 74 -207 65 -221 -2 -4 0 -10 5 -14 5 -3 10 -13 9
-23 0 -9 3 -33 7 -52 14 -76 12 -109 -7 -126 -10 -10 -18 -15 -18 -11 0 3 -26
-8 -57 -24 -31 -16 -63 -29 -70 -29 -8 0 -12 -3 -10 -7 3 -5 -8 -9 -24 -10
-16 -1 -29 2 -29 7 0 6 -9 10 -20 10 -11 0 -20 5 -20 12 0 6 -3 8 -7 5 -3 -4
-22 3 -42 15 -20 13 -37 22 -38 21 -9 -5 -42 11 -37 18 3 5 2 9 -3 8 -34 -6
-44 2 -41 37 1 19 5 37 8 39 4 2 5 18 4 34 -1 17 1 31 5 31 4 0 8 10 8 23 1
19 8 53 13 67 1 3 2 8 1 13 0 4 6 7 14 7 9 0 27 11 40 25 29 28 32 70 9 104
-14 19 -14 27 -3 49 7 15 13 31 13 35 1 5 9 14 18 21 10 7 15 16 11 19 -3 4 0
7 7 7 7 0 10 3 6 7 -4 4 8 15 26 24 38 20 68 12 110 -29z m707 -415 c10 3 22
0 25 -6 4 -5 13 -8 21 -4 9 3 21 0 29 -6 7 -6 16 -7 20 -3 4 4 6 3 5 -3 -2 -5
2 -20 9 -32 8 -15 9 -24 2 -28 -8 -5 -7 -11 1 -21 8 -10 8 -14 0 -14 -6 0 -11
-7 -11 -15 0 -8 -6 -15 -12 -16 -10 0 -10 -2 0 -6 9 -3 7 -10 -9 -24 -12 -10
-18 -19 -13 -19 5 0 1 -5 -8 -11 -10 -5 -18 -14 -18 -19 0 -10 -154 -170 -164
-170 -3 0 -20 -15 -37 -32 -17 -18 -28 -26 -24 -18 4 8 -5 2 -20 -15 -14 -16
-30 -30 -35 -30 -5 0 -11 -3 -15 -7 -8 -8 -35 1 -51 16 -31 28 -55 46 -64 46
-6 0 -10 3 -10 8 0 4 -13 13 -30 20 -54 24 -74 54 -77 118 -4 82 -7 98 -18
106 -6 5 -5 8 3 8 10 0 10 5 1 21 -8 15 -8 19 0 15 6 -4 11 -3 11 2 0 9 39 28
70 34 8 2 20 10 27 18 7 8 13 12 13 8 0 -4 19 0 43 8 23 9 49 17 57 19 8 2 17
4 20 5 3 1 8 2 13 1 4 0 7 3 7 7 0 4 10 9 23 10 38 5 62 9 62 12 0 1 16 3 35
4 19 1 41 5 48 9 6 5 16 6 21 2 5 -3 13 0 17 7 5 8 9 9 11 1 2 -6 12 -9 22 -6z
m-1379 -22 c14 -3 34 -8 45 -10 11 -2 45 -11 75 -20 30 -9 61 -17 68 -17 6 -1
12 -6 12 -11 0 -6 3 -7 6 -4 4 3 16 1 28 -5 11 -7 24 -13 29 -14 4 -1 10 -3
15 -4 4 -1 10 -2 15 -1 4 0 7 -4 7 -10 0 -5 5 -7 12 -3 8 5 9 0 6 -14 -4 -12
-2 -22 4 -22 5 0 6 -6 1 -12 -9 -15 -12 -38 -16 -128 -4 -75 -10 -90 -52 -116
-16 -10 -32 -21 -35 -24 -9 -9 -64 -46 -87 -58 -19 -10 -28 -6 -80 35 -32 26
-75 64 -96 85 -21 21 -40 38 -42 38 -7 0 -55 51 -55 58 0 4 -9 14 -20 22 -11
8 -20 20 -20 27 0 7 -3 13 -8 13 -10 0 -50 80 -56 112 -12 72 28 97 144 92 41
-1 86 -6 100 -9z m447 -157 c15 -6 31 -11 35 -10 3 1 12 -5 18 -13 7 -8 18
-15 26 -15 32 0 19 -20 -31 -46 -30 -16 -55 -32 -55 -36 0 -5 -5 -8 -11 -8 -6
0 -24 -9 -39 -20 l-28 -20 3 78 c3 65 5 87 14 120 1 1 10 -2 20 -8 11 -5 32
-15 48 -22z m389 -56 c4 -48 2 -72 -6 -77 -7 -4 -15 -3 -19 2 -3 6 -16 13 -28
17 -13 4 -23 12 -23 17 0 6 -4 8 -8 5 -5 -3 -18 3 -28 12 -10 10 -22 19 -26
20 -5 1 -7 5 -5 10 1 4 5 6 10 5 4 -2 7 2 7 7 0 5 7 10 15 10 8 0 15 4 15 9 0
9 57 27 73 23 4 -1 7 3 7 10 0 6 2 9 5 6 3 -3 8 -37 11 -76z m-196 -43 c0 -5
5 -7 10 -4 6 3 10 1 10 -5 0 -6 5 -8 10 -5 6 3 10 1 10 -4 0 -6 7 -11 15 -11
8 0 15 -5 15 -10 0 -5 3 -9 8 -8 9 3 122 -61 123 -70 1 -4 2 -69 3 -145 1
-136 -5 -184 -23 -172 -5 3 -12 1 -16 -5 -3 -6 -25 -20 -48 -31 -23 -12 -45
-26 -48 -31 -3 -5 -9 -9 -13 -9 -20 3 -26 0 -20 -10 4 -7 1 -10 -7 -7 -8 3
-19 -1 -26 -8 -15 -14 -48 -8 -83 16 -14 9 -40 23 -57 31 -18 8 -33 17 -33 21
0 5 -7 8 -15 8 -8 0 -15 4 -15 8 0 5 -15 14 -34 22 -19 7 -38 22 -43 34 -5 12
-9 74 -9 139 1 107 3 120 21 133 11 7 26 18 33 24 6 6 12 8 12 5 0 -3 10 3 22
15 12 11 27 20 33 20 6 0 27 11 46 25 20 13 39 21 43 18 3 -4 6 -1 6 5 0 11
20 19 53 21 9 0 17 -4 17 -10z m320 -189 c25 -16 50 -34 56 -39 7 -5 15 -7 18
-4 3 4 6 -1 6 -11 0 -9 5 -14 10 -11 6 3 10 1 10 -4 0 -12 -40 -55 -40 -43 0
4 -4 3 -8 -3 -13 -18 -75 -58 -67 -44 4 8 -4 1 -17 -15 -25 -29 -25 -29 -23
-5 1 13 -2 30 -8 37 -6 8 -5 12 4 12 11 0 11 2 -1 10 -9 6 -10 10 -3 10 6 0
11 9 10 20 -1 11 -5 20 -10 20 -5 0 -4 7 3 15 10 12 10 15 -1 15 -9 0 -10 3
-3 8 13 8 14 42 2 42 -5 0 -6 5 -3 10 9 15 15 13 65 -20z m-663 -75 c-1 -47
-2 -85 -2 -85 -14 0 -64 24 -61 29 3 4 -11 15 -30 26 -34 18 -49 50 -17 38 13
-5 15 -3 9 12 -4 11 -4 17 -1 13 4 -3 25 7 48 23 23 15 45 29 48 29 4 0 6 -38
6 -85z m-147 -66 c0 -6 4 -8 9 -5 5 3 14 -1 21 -9 7 -8 17 -12 24 -8 6 3 8 3
4 -1 -7 -9 13 -36 23 -31 3 2 20 -9 38 -24 33 -29 35 -36 44 -211 1 -19 5 -38
9 -41 11 -7 -14 -39 -32 -43 -13 -3 -45 -14 -90 -33 -18 -7 -28 -10 -59 -17
-13 -3 -26 -7 -28 -10 -2 -2 -15 7 -28 20 -43 43 -106 27 -131 -32 -9 -23 -21
-35 -32 -33 -9 1 -19 0 -22 -1 -16 -6 -60 -4 -60 2 0 4 -3 7 -7 7 -41 -7 -94
24 -86 49 3 6 0 12 -7 12 -6 0 -8 5 -3 13 8 12 13 32 15 55 1 6 4 12 7 12 4 0
17 20 31 44 13 25 28 43 32 40 4 -3 8 0 8 5 0 6 9 20 20 31 11 11 17 20 12 20
-4 0 6 9 21 19 16 10 28 21 28 25 -1 3 0 5 2 4 1 -1 22 17 46 40 24 23 48 42
52 42 4 0 10 9 14 20 3 11 9 19 13 17 13 -4 52 30 44 38 -4 5 -2 5 5 1 6 -3
14 -2 18 4 7 12 45 -5 45 -21z m981 17 c5 3 12 -2 15 -10 3 -9 10 -14 15 -11
4 3 13 -4 19 -15 6 -11 14 -18 19 -16 10 7 41 -30 33 -40 -4 -4 -2 -4 5 0 6 3
19 -4 27 -16 9 -12 16 -19 16 -15 0 11 92 -82 144 -147 44 -55 74 -110 68
-128 -1 -5 2 -8 6 -8 20 0 5 -46 -23 -71 -28 -25 -35 -27 -115 -24 -93 2 -120
10 -120 32 0 7 -11 25 -25 38 -30 31 -73 32 -108 5 -27 -21 -21 -22 -112 15
-11 5 -22 9 -25 9 -3 1 -24 9 -47 20 -38 17 -41 21 -40 55 1 20 5 41 7 46 3 6
5 37 5 70 0 54 3 63 29 88 16 15 34 27 38 27 5 0 7 4 4 8 -2 4 4 9 15 9 21 2
51 27 44 37 -3 3 -2 4 1 1 4 -2 25 9 48 26 22 16 42 25 44 19 2 -5 8 -8 13 -4z
m-741 -170 c0 5 7 0 15 -10 8 -11 15 -16 15 -12 0 4 19 -6 43 -22 23 -16 50
-32 60 -35 20 -7 18 -34 -2 -29 -6 1 -11 -2 -11 -8 0 -5 -7 -10 -15 -10 -8 0
-15 -4 -15 -10 0 -5 -7 -10 -15 -10 -9 0 -33 -9 -54 -20 -36 -18 -39 -18 -36
-2 1 9 0 22 -4 27 -3 6 -6 31 -7 57 -1 25 -4 53 -7 62 -4 9 -2 16 4 16 6 0 7
6 3 13 -5 8 -2 8 9 -2 9 -7 17 -10 17 -5z m454 -21 c3 -8 2 -15 -2 -15 -4 0
-6 -22 -6 -50 1 -27 -3 -50 -8 -50 -6 0 -8 -7 -4 -15 6 -17 -17 -16 -50 3 -12
6 -25 8 -29 4 -3 -4 -5 0 -3 8 2 8 -1 15 -7 15 -5 1 -20 4 -33 9 -17 6 -19 10
-10 19 22 21 68 48 68 40 0 -5 4 -3 8 2 8 12 54 44 63 44 4 1 9 -6 13 -14z
m-187 -131 c13 -8 23 -12 23 -9 0 4 13 -3 29 -14 16 -12 39 -21 50 -21 12 0
21 -4 21 -10 0 -5 7 -10 15 -10 20 0 29 -40 17 -81 -5 -19 -8 -42 -6 -51 1
-10 -2 -18 -7 -18 -6 0 -7 -4 -4 -10 3 -5 0 -29 -6 -52 -14 -51 -17 -65 -21
-98 -2 -14 -7 -28 -11 -31 -4 -3 -9 -16 -10 -27 -1 -12 -5 -22 -9 -22 -4 0 -5
-9 -3 -20 2 -11 0 -20 -5 -20 -5 0 -12 -11 -16 -25 -3 -14 -10 -25 -15 -25 -5
0 -9 -6 -9 -13 0 -18 -53 -68 -76 -71 -11 -2 -25 2 -33 8 -12 9 -13 8 -6 -3 5
-9 -2 -7 -18 5 -15 10 -27 22 -27 26 0 4 -6 13 -13 20 -14 14 -66 132 -72 163
-2 11 -4 21 -5 23 -2 1 -4 7 -5 12 -1 6 -4 11 -5 13 -1 1 -4 11 -5 22 -2 11
-6 34 -10 50 -4 17 -8 42 -8 58 -1 15 -6 27 -10 27 -5 0 -5 9 -2 20 4 13 2 20
-7 20 -10 0 -9 3 2 10 11 7 11 10 2 10 -9 0 -12 10 -8 31 2 17 6 32 8 33 7 4
53 23 58 24 3 0 35 15 71 34 75 38 105 43 136 22z"/>
</g>
</svg>
